<mxfile host="65bd71144e">
    <diagram id="48uAS24LZ3Q4GPk9hQN1" name="Page-1">
        <mxGraphModel dx="1041" dy="466" grid="1" gridSize="10" guides="1" tooltips="1" connect="1" arrows="1" fold="1" page="1" pageScale="1" pageWidth="850" pageHeight="1100" background="#ffffff" math="0" shadow="0">
            <root>
                <mxCell id="0"/>
                <mxCell id="1" parent="0"/>
                <mxCell id="244" value="&lt;font&gt;Membro de Projeto&lt;/font&gt;" style="shape=umlActor;verticalLabelPosition=bottom;verticalAlign=top;html=1;fontSize=11;" vertex="1" parent="1">
                    <mxGeometry x="200" y="390" width="30" height="60" as="geometry"/>
                </mxCell>
                <mxCell id="245" value="&lt;font&gt;Gestor de Projeto&lt;/font&gt;" style="shape=umlActor;verticalLabelPosition=bottom;verticalAlign=top;html=1;fontSize=11;" vertex="1" parent="1">
                    <mxGeometry x="200" y="80" width="30" height="60" as="geometry"/>
                </mxCell>
                <mxCell id="246" value="&lt;font&gt;Adminsitrador de Projeto&lt;/font&gt;" style="shape=umlActor;verticalLabelPosition=bottom;verticalAlign=top;html=1;fontSize=9;" vertex="1" parent="1">
                    <mxGeometry x="650" y="200" width="30" height="60" as="geometry"/>
                </mxCell>
                <mxCell id="247" value="" style="rounded=0;whiteSpace=wrap;html=1;" vertex="1" parent="1">
                    <mxGeometry x="360" y="60" width="160" height="410" as="geometry"/>
                </mxCell>
                <mxCell id="248" value="&lt;font&gt;Cadastrar Usuário&lt;/font&gt;" style="ellipse;whiteSpace=wrap;html=1;fontSize=10;" vertex="1" parent="1">
                    <mxGeometry x="397.5" y="70" width="92.5" height="40" as="geometry"/>
                </mxCell>
                <mxCell id="251" value="&lt;font&gt;Login Sistema&lt;/font&gt;" style="ellipse;whiteSpace=wrap;html=1;fontSize=10;" vertex="1" parent="1">
                    <mxGeometry x="397.5" y="120" width="92.5" height="40" as="geometry"/>
                </mxCell>
                <mxCell id="252" value="Criar e Gerenciar&lt;div&gt;Projeto&lt;/div&gt;" style="ellipse;whiteSpace=wrap;html=1;fontSize=10;" vertex="1" parent="1">
                    <mxGeometry x="397.5" y="220" width="92.5" height="40" as="geometry"/>
                </mxCell>
                <mxCell id="253" value="Criar e Gerenciar&lt;div&gt;Tarefa&lt;/div&gt;" style="ellipse;whiteSpace=wrap;html=1;fontSize=10;" vertex="1" parent="1">
                    <mxGeometry x="397.5" y="270" width="92.5" height="40" as="geometry"/>
                </mxCell>
                <mxCell id="254" value="Gerenciar Dados&lt;div&gt;Usuário&lt;/div&gt;" style="ellipse;whiteSpace=wrap;html=1;fontSize=10;" vertex="1" parent="1">
                    <mxGeometry x="397.5" y="170" width="92.5" height="40" as="geometry"/>
                </mxCell>
                <mxCell id="255" value="Criar e Gerenciar&lt;div&gt;Subtarefa&lt;/div&gt;" style="ellipse;whiteSpace=wrap;html=1;fontSize=10;" vertex="1" parent="1">
                    <mxGeometry x="397.5" y="320" width="92.5" height="40" as="geometry"/>
                </mxCell>
                <mxCell id="256" value="Enviar e Grenciar Atividade" style="ellipse;whiteSpace=wrap;html=1;fontSize=10;" vertex="1" parent="1">
                    <mxGeometry x="397.5" y="370" width="92.5" height="40" as="geometry"/>
                </mxCell>
                <mxCell id="257" value="Receber e Arquivar Notificações" style="ellipse;whiteSpace=wrap;html=1;fontSize=9;" vertex="1" parent="1">
                    <mxGeometry x="397.5" y="420" width="92.5" height="40" as="geometry"/>
                </mxCell>
                <mxCell id="258" value="Gerenciamento de Tarefas e Projetos" style="rounded=0;whiteSpace=wrap;html=1;fontSize=10;fontStyle=1" vertex="1" parent="1">
                    <mxGeometry x="360" y="30" width="160" height="30" as="geometry"/>
                </mxCell>
                <mxCell id="259" value="" style="endArrow=block;endFill=1;html=1;edgeStyle=orthogonalEdgeStyle;align=left;verticalAlign=top;entryX=0;entryY=0.5;entryDx=0;entryDy=0;exitX=0.5;exitY=0.5;exitDx=0;exitDy=0;exitPerimeter=0;curved=1;" edge="1" parent="1" source="245" target="248">
                    <mxGeometry x="-1" relative="1" as="geometry">
                        <mxPoint x="390" y="150" as="sourcePoint"/>
                        <mxPoint x="550" y="150" as="targetPoint"/>
                    </mxGeometry>
                </mxCell>
                <mxCell id="261" value="" style="endArrow=block;endFill=1;html=1;edgeStyle=orthogonalEdgeStyle;align=left;verticalAlign=top;entryX=0;entryY=0.5;entryDx=0;entryDy=0;exitX=0.5;exitY=0.5;exitDx=0;exitDy=0;exitPerimeter=0;curved=1;" edge="1" parent="1" source="245" target="251">
                    <mxGeometry x="-1" relative="1" as="geometry">
                        <mxPoint x="322" y="140" as="sourcePoint"/>
                        <mxPoint x="425" y="120" as="targetPoint"/>
                        <Array as="points">
                            <mxPoint x="330" y="110"/>
                            <mxPoint x="330" y="140"/>
                        </Array>
                    </mxGeometry>
                </mxCell>
                <mxCell id="262" value="" style="endArrow=block;endFill=1;html=1;edgeStyle=orthogonalEdgeStyle;align=left;verticalAlign=top;entryX=0;entryY=0.5;entryDx=0;entryDy=0;exitX=0.5;exitY=0.5;exitDx=0;exitDy=0;exitPerimeter=0;curved=1;" edge="1" parent="1" source="245" target="254">
                    <mxGeometry x="-1" relative="1" as="geometry">
                        <mxPoint x="305" y="120" as="sourcePoint"/>
                        <mxPoint x="408" y="150" as="targetPoint"/>
                        <Array as="points">
                            <mxPoint x="330" y="110"/>
                            <mxPoint x="330" y="190"/>
                        </Array>
                    </mxGeometry>
                </mxCell>
                <mxCell id="263" value="" style="endArrow=block;endFill=1;html=1;edgeStyle=orthogonalEdgeStyle;align=left;verticalAlign=top;entryX=0;entryY=0.5;entryDx=0;entryDy=0;exitX=0.5;exitY=0.5;exitDx=0;exitDy=0;exitPerimeter=0;curved=1;" edge="1" parent="1" source="245" target="252">
                    <mxGeometry x="-1" relative="1" as="geometry">
                        <mxPoint x="305" y="120" as="sourcePoint"/>
                        <mxPoint x="408" y="200" as="targetPoint"/>
                        <Array as="points">
                            <mxPoint x="320" y="110"/>
                            <mxPoint x="320" y="240"/>
                        </Array>
                    </mxGeometry>
                </mxCell>
                <mxCell id="264" value="" style="endArrow=block;endFill=1;html=1;edgeStyle=orthogonalEdgeStyle;align=left;verticalAlign=top;entryX=0;entryY=0.5;entryDx=0;entryDy=0;exitX=0.5;exitY=0.5;exitDx=0;exitDy=0;exitPerimeter=0;curved=1;" edge="1" parent="1" source="245" target="253">
                    <mxGeometry x="-1" relative="1" as="geometry">
                        <mxPoint x="305" y="120" as="sourcePoint"/>
                        <mxPoint x="408" y="250" as="targetPoint"/>
                    </mxGeometry>
                </mxCell>
                <mxCell id="265" value="" style="endArrow=block;endFill=1;html=1;edgeStyle=orthogonalEdgeStyle;align=left;verticalAlign=top;exitX=0.5;exitY=0.5;exitDx=0;exitDy=0;exitPerimeter=0;entryX=0;entryY=0.5;entryDx=0;entryDy=0;curved=1;" edge="1" parent="1" source="245" target="255">
                    <mxGeometry x="-1" relative="1" as="geometry">
                        <mxPoint x="305" y="120" as="sourcePoint"/>
                        <mxPoint x="408" y="300" as="targetPoint"/>
                        <Array as="points">
                            <mxPoint x="310" y="110"/>
                            <mxPoint x="310" y="340"/>
                        </Array>
                    </mxGeometry>
                </mxCell>
                <mxCell id="266" value="" style="endArrow=block;endFill=1;html=1;align=left;verticalAlign=top;exitX=0.5;exitY=0.5;exitDx=0;exitDy=0;exitPerimeter=0;entryX=0;entryY=0.5;entryDx=0;entryDy=0;edgeStyle=orthogonalEdgeStyle;elbow=vertical;curved=1;" edge="1" parent="1" source="245" target="256">
                    <mxGeometry x="-1" relative="1" as="geometry">
                        <mxPoint x="305" y="120" as="sourcePoint"/>
                        <mxPoint x="408" y="350" as="targetPoint"/>
                        <Array as="points">
                            <mxPoint x="300" y="110"/>
                            <mxPoint x="300" y="390"/>
                        </Array>
                    </mxGeometry>
                </mxCell>
                <mxCell id="268" value="" style="endArrow=block;endFill=1;html=1;align=left;verticalAlign=top;exitX=0.5;exitY=0.5;exitDx=0;exitDy=0;exitPerimeter=0;edgeStyle=orthogonalEdgeStyle;elbow=vertical;curved=1;entryX=0;entryY=0.5;entryDx=0;entryDy=0;" edge="1" parent="1" source="245" target="257">
                    <mxGeometry x="-1" relative="1" as="geometry">
                        <mxPoint x="200" y="160" as="sourcePoint"/>
                        <mxPoint x="383.00006015872805" y="440.0322580645161" as="targetPoint"/>
                        <Array as="points">
                            <mxPoint x="240" y="110"/>
                            <mxPoint x="240" y="140"/>
                            <mxPoint x="290" y="140"/>
                            <mxPoint x="290" y="440"/>
                        </Array>
                    </mxGeometry>
                </mxCell>
                <mxCell id="269" value="" style="endArrow=block;endFill=1;html=1;edgeStyle=orthogonalEdgeStyle;align=left;verticalAlign=top;exitX=0.5;exitY=0.5;exitDx=0;exitDy=0;exitPerimeter=0;curved=1;entryX=0;entryY=1;entryDx=0;entryDy=0;strokeColor=light-dark(#0e26a0, #ededed);" edge="1" parent="1" source="244" target="257">
                    <mxGeometry x="-1" relative="1" as="geometry">
                        <mxPoint x="250" y="370" as="sourcePoint"/>
                        <mxPoint x="410" y="370" as="targetPoint"/>
                    </mxGeometry>
                </mxCell>
                <mxCell id="271" value="" style="endArrow=block;endFill=1;html=1;edgeStyle=orthogonalEdgeStyle;align=left;verticalAlign=top;exitX=0.5;exitY=0.5;exitDx=0;exitDy=0;exitPerimeter=0;curved=1;entryX=0;entryY=1;entryDx=0;entryDy=0;strokeColor=light-dark(#0e26a0, #ededed);" edge="1" parent="1" source="244" target="256">
                    <mxGeometry x="-1" relative="1" as="geometry">
                        <mxPoint x="225" y="430" as="sourcePoint"/>
                        <mxPoint x="421" y="464" as="targetPoint"/>
                    </mxGeometry>
                </mxCell>
                <mxCell id="272" value="" style="endArrow=block;endFill=1;html=1;edgeStyle=orthogonalEdgeStyle;align=left;verticalAlign=top;exitX=0.5;exitY=0.5;exitDx=0;exitDy=0;exitPerimeter=0;curved=1;entryX=0;entryY=1;entryDx=0;entryDy=0;strokeColor=light-dark(#0e26a0, #ededed);" edge="1" parent="1" source="244" target="254">
                    <mxGeometry x="-1" relative="1" as="geometry">
                        <mxPoint x="225" y="430" as="sourcePoint"/>
                        <mxPoint x="421" y="414" as="targetPoint"/>
                        <Array as="points">
                            <mxPoint x="330" y="420"/>
                            <mxPoint x="330" y="204"/>
                        </Array>
                    </mxGeometry>
                </mxCell>
                <mxCell id="274" value="" style="endArrow=block;endFill=1;html=1;edgeStyle=orthogonalEdgeStyle;align=left;verticalAlign=top;exitX=0.5;exitY=0.5;exitDx=0;exitDy=0;exitPerimeter=0;curved=1;entryX=0;entryY=1;entryDx=0;entryDy=0;strokeColor=light-dark(#0e26a0, #ededed);" edge="1" parent="1" source="244" target="248">
                    <mxGeometry x="-1" relative="1" as="geometry">
                        <mxPoint x="225" y="416" as="sourcePoint"/>
                        <mxPoint x="421" y="200" as="targetPoint"/>
                        <Array as="points">
                            <mxPoint x="280" y="420"/>
                            <mxPoint x="280" y="104"/>
                        </Array>
                    </mxGeometry>
                </mxCell>
                <mxCell id="275" value="" style="endArrow=block;endFill=1;html=1;edgeStyle=orthogonalEdgeStyle;align=left;verticalAlign=top;exitX=0.5;exitY=0.5;exitDx=0;exitDy=0;exitPerimeter=0;curved=1;entryX=0;entryY=1;entryDx=0;entryDy=0;strokeColor=light-dark(#0e26a0, #ededed);" edge="1" parent="1" source="244" target="251">
                    <mxGeometry x="-1" relative="1" as="geometry">
                        <mxPoint x="229" y="419.97" as="sourcePoint"/>
                        <mxPoint x="425" y="203.97" as="targetPoint"/>
                        <Array as="points">
                            <mxPoint x="310" y="420"/>
                            <mxPoint x="310" y="154"/>
                        </Array>
                    </mxGeometry>
                </mxCell>
                <mxCell id="276" value="" style="endArrow=block;endFill=1;html=1;edgeStyle=orthogonalEdgeStyle;align=left;verticalAlign=top;exitX=0.5;exitY=0.5;exitDx=0;exitDy=0;exitPerimeter=0;entryX=1;entryY=0.5;entryDx=0;entryDy=0;curved=1;" edge="1" parent="1" source="246" target="248">
                    <mxGeometry x="-1" relative="1" as="geometry">
                        <mxPoint x="570" y="170" as="sourcePoint"/>
                        <mxPoint x="730" y="170" as="targetPoint"/>
                    </mxGeometry>
                </mxCell>
                <mxCell id="278" value="" style="endArrow=block;endFill=1;html=1;edgeStyle=orthogonalEdgeStyle;align=left;verticalAlign=top;exitX=0.5;exitY=0.5;exitDx=0;exitDy=0;exitPerimeter=0;entryX=1;entryY=0.5;entryDx=0;entryDy=0;curved=1;" edge="1" parent="1" source="246" target="251">
                    <mxGeometry x="-1" relative="1" as="geometry">
                        <mxPoint x="675" y="240" as="sourcePoint"/>
                        <mxPoint x="500" y="100" as="targetPoint"/>
                        <Array as="points">
                            <mxPoint x="560" y="230"/>
                            <mxPoint x="560" y="140"/>
                        </Array>
                    </mxGeometry>
                </mxCell>
                <mxCell id="279" value="" style="endArrow=block;endFill=1;html=1;edgeStyle=orthogonalEdgeStyle;align=left;verticalAlign=top;entryX=1;entryY=0.5;entryDx=0;entryDy=0;curved=1;" edge="1" parent="1" target="254">
                    <mxGeometry x="-1" relative="1" as="geometry">
                        <mxPoint x="660" y="230" as="sourcePoint"/>
                        <mxPoint x="500" y="150" as="targetPoint"/>
                        <Array as="points">
                            <mxPoint x="560" y="230"/>
                            <mxPoint x="560" y="190"/>
                        </Array>
                    </mxGeometry>
                </mxCell>
                <mxCell id="282" value="" style="endArrow=block;endFill=1;html=1;edgeStyle=orthogonalEdgeStyle;align=left;verticalAlign=top;entryX=1;entryY=0.5;entryDx=0;entryDy=0;curved=1;exitX=0.5;exitY=0.5;exitDx=0;exitDy=0;exitPerimeter=0;" edge="1" parent="1" source="246" target="253">
                    <mxGeometry x="-1" relative="1" as="geometry">
                        <mxPoint x="670" y="240" as="sourcePoint"/>
                        <mxPoint x="500" y="200" as="targetPoint"/>
                        <Array as="points">
                            <mxPoint x="570" y="230"/>
                            <mxPoint x="570" y="290"/>
                        </Array>
                    </mxGeometry>
                </mxCell>
                <mxCell id="283" value="" style="endArrow=block;endFill=1;html=1;edgeStyle=orthogonalEdgeStyle;align=left;verticalAlign=top;entryX=1;entryY=0.5;entryDx=0;entryDy=0;curved=1;exitX=0.5;exitY=0.5;exitDx=0;exitDy=0;exitPerimeter=0;" edge="1" parent="1" source="246" target="255">
                    <mxGeometry x="-1" relative="1" as="geometry">
                        <mxPoint x="675" y="240" as="sourcePoint"/>
                        <mxPoint x="500" y="300" as="targetPoint"/>
                        <Array as="points">
                            <mxPoint x="580" y="230"/>
                            <mxPoint x="580" y="340"/>
                        </Array>
                    </mxGeometry>
                </mxCell>
                <mxCell id="284" value="" style="endArrow=block;endFill=1;html=1;edgeStyle=orthogonalEdgeStyle;align=left;verticalAlign=top;entryX=1;entryY=0.5;entryDx=0;entryDy=0;curved=1;exitX=0.5;exitY=0.5;exitDx=0;exitDy=0;exitPerimeter=0;" edge="1" parent="1" source="246" target="256">
                    <mxGeometry x="-1" relative="1" as="geometry">
                        <mxPoint x="675" y="240" as="sourcePoint"/>
                        <mxPoint x="500" y="350" as="targetPoint"/>
                        <Array as="points">
                            <mxPoint x="590" y="230"/>
                            <mxPoint x="590" y="390"/>
                        </Array>
                    </mxGeometry>
                </mxCell>
                <mxCell id="285" value="" style="endArrow=block;endFill=1;html=1;edgeStyle=orthogonalEdgeStyle;align=left;verticalAlign=top;entryX=1;entryY=0.5;entryDx=0;entryDy=0;curved=1;exitX=0.5;exitY=0.5;exitDx=0;exitDy=0;exitPerimeter=0;" edge="1" parent="1" source="246" target="257">
                    <mxGeometry x="-1" relative="1" as="geometry">
                        <mxPoint x="680" y="270" as="sourcePoint"/>
                        <mxPoint x="505" y="430" as="targetPoint"/>
                        <Array as="points">
                            <mxPoint x="600" y="230"/>
                            <mxPoint x="600" y="440"/>
                        </Array>
                    </mxGeometry>
                </mxCell>
            </root>
        </mxGraphModel>
    </diagram>
</mxfile>